<?xml version="1.0" standalone="no"?>
<!DOCTYPE svg PUBLIC "-//W3C//DTD SVG 20010904//EN"
 "http://www.w3.org/TR/2001/REC-SVG-20010904/DTD/svg10.dtd">
<svg version="1.0" xmlns="http://www.w3.org/2000/svg"
 width="188.000000pt" height="47.000000pt" viewBox="0 0 188.000000 47.000000"
 preserveAspectRatio="xMidYMid meet">

<g transform="translate(0.000000,47.000000) scale(0.100000,-0.100000)"
fill="#000000" stroke="none">
<path d="M1563 414 c-3 -8 -1 -20 5 -26 16 -16 47 -5 50 20 3 18 -1 22 -23 22
-14 0 -28 -7 -32 -16z"/>
<path d="M224 335 c-58 -30 -83 -114 -48 -163 16 -23 57 -29 84 -12 9 6 17 5
21 -2 4 -5 15 -7 26 -4 15 5 18 13 15 34 -2 15 3 55 12 87 8 33 13 61 11 63
-13 13 -93 11 -121 -3z m61 -67 c-10 -60 -22 -80 -48 -76 -17 2 -23 11 -25 40
-4 42 24 78 59 78 19 0 20 -4 14 -42z"/>
<path d="M434 343 c-16 -3 -24 -18 -38 -76 -9 -40 -19 -82 -22 -94 -5 -19 -2
-23 18 -23 21 0 26 8 43 78 19 75 21 77 53 80 24 2 32 8 32 23 0 15 -7 19 -32
18 -18 -1 -42 -4 -54 -6z"/>
<path d="M601 337 c-65 -33 -89 -130 -42 -169 31 -24 94 -22 99 5 3 13 -3 17
-27 17 -51 0 -64 56 -23 103 8 9 29 17 47 17 19 0 35 6 38 14 10 26 -50 35
-92 13z"/>
<path d="M744 316 c-30 -30 -34 -40 -34 -84 0 -41 4 -54 22 -66 51 -36 116
-11 143 56 42 105 -52 173 -131 94z m92 -30 c12 -47 -15 -96 -52 -96 -26 0
-39 28 -28 63 17 55 69 77 80 33z"/>
<path d="M975 340 c-16 -6 -25 -27 -39 -86 -10 -44 -21 -85 -23 -91 -3 -8 4
-13 20 -13 23 0 26 7 44 78 16 65 22 78 41 80 37 6 38 -31 6 -140 -4 -14 1
-18 20 -18 20 0 27 6 32 28 3 15 10 43 15 62 13 52 11 68 -11 90 -21 21 -68
26 -105 10z"/>
<path d="M1193 330 c-40 -24 -53 -48 -53 -99 0 -57 27 -83 83 -79 30 2 43 8
45 21 3 13 -4 17 -31 17 -39 0 -68 24 -41 34 8 3 27 6 40 6 29 0 74 41 74 68
0 25 -31 52 -61 52 -13 0 -38 -9 -56 -20z m72 -30 c11 -18 -15 -40 -46 -40
-30 0 -38 17 -17 38 15 15 55 16 63 2z"/>
<path d="M1383 340 c-45 -18 -41 -75 7 -102 16 -9 30 -24 30 -34 0 -13 -8 -15
-45 -12 -32 2 -46 -1 -50 -11 -8 -20 13 -31 60 -31 86 0 118 71 50 111 -48 28
-46 49 4 49 24 0 41 5 44 14 10 25 -53 35 -100 16z"/>
<path d="M1683 331 c-41 -26 -53 -49 -53 -104 0 -30 6 -49 18 -60 20 -19 59
-22 82 -7 9 6 17 5 21 -2 14 -22 39 1 39 36 0 19 5 57 12 85 6 28 9 54 5 57
-3 4 -25 8 -49 11 -31 3 -52 -1 -75 -16z m77 -28 c0 -5 -6 -30 -13 -58 -11
-42 -17 -50 -39 -53 -19 -2 -28 2 -33 17 -9 29 4 69 28 86 23 16 57 20 57 8z"/>
<path d="M1531 251 c-26 -108 -26 -101 2 -101 21 0 25 8 41 81 10 45 20 87 23
95 3 10 -3 14 -20 14 -24 0 -27 -6 -46 -89z"/>
</g>
</svg>
